<?xml version="1.0" standalone="no"?>
<!DOCTYPE svg PUBLIC "-//W3C//DTD SVG 20010904//EN"
 "http://www.w3.org/TR/2001/REC-SVG-20010904/DTD/svg10.dtd">
<svg version="1.0" xmlns="http://www.w3.org/2000/svg"
 width="1500.000000pt" height="1500.000000pt" viewBox="0 0 1500.000000 1500.000000"
 preserveAspectRatio="xMidYMid meet">

<g transform="translate(0.000000,1500.000000) scale(0.100000,-0.100000)"
fill="#000000" stroke="none">
<path d="M7315 10874 c-509 -39 -907 -145 -1318 -350 -352 -176 -597 -354
-882 -639 -285 -285 -463 -530 -639 -882 -181 -362 -288 -730 -337 -1158 -17
-142 -17 -548 0 -690 89 -780 407 -1460 934 -2002 563 -579 1270 -924 2077
-1014 148 -17 552 -17 700 0 655 73 1257 321 1765 725 129 103 418 392 521
521 404 508 652 1112 725 1765 17 148 17 553 0 695 -76 662 -302 1220 -707
1745 -114 148 -416 450 -564 564 -522 403 -1086 632 -1735 706 -97 11 -458 20
-540 14z m1856 -2227 c24 -13 58 -43 74 -66 30 -43 30 -43 33 -206 l4 -163
256 -5 c283 -4 343 -14 478 -78 258 -122 395 -383 354 -678 -38 -279 -215
-463 -522 -543 -77 -20 -113 -21 -505 -25 l-423 -5 0 896 0 896 103 0 c89 0
110 -3 148 -23z m-876 -46 c67 -31 125 -111 125 -171 0 -20 -4 -20 -570 -20
l-570 0 0 25 c0 34 26 94 53 124 12 13 40 32 62 42 37 17 73 19 450 19 378 0
413 -2 450 -19z m-238 -357 c236 -48 400 -164 491 -345 63 -125 76 -189 76
-354 0 -160 -14 -225 -72 -345 -53 -108 -167 -221 -282 -278 -156 -76 -362
-107 -556 -82 -189 23 -324 82 -439 191 -132 126 -194 270 -202 475 -17 394
189 662 567 739 94 19 324 19 417 -1z m-1742 -49 c255 -41 404 -153 457 -343
16 -60 18 -110 18 -519 l0 -453 -180 0 -179 0 -4 463 c-3 517 -2 507 -74 588
-63 69 -124 90 -280 97 l-123 5 0 -577 0 -576 -180 0 -180 0 0 498 c0 462 -2
500 -19 537 -44 96 -93 115 -301 115 l-160 0 0 -575 0 -575 -180 0 -180 0 0
665 0 665 738 0 c599 0 754 -3 827 -15z m3992 -1561 c-6 -55 -47 -111 -103
-139 -39 -20 -61 -20 -2669 -23 -1827 -2 -2645 1 -2680 8 -89 19 -152 81 -162
159 l-6 41 2813 0 2813 0 -6 -46z"/>
<path d="M9280 7549 l0 -480 218 3 c211 3 219 4 274 30 100 46 166 136 199
268 21 83 18 300 -5 375 -48 160 -132 244 -274 274 -29 6 -134 11 -232 11
l-180 0 0 -481z"/>
<path d="M7733 8076 c-94 -31 -166 -98 -214 -201 -48 -101 -61 -188 -57 -360
4 -130 8 -161 32 -230 64 -190 174 -278 351 -279 109 -1 170 21 244 89 111
103 157 258 148 495 -7 189 -42 296 -126 392 -62 70 -134 101 -246 105 -57 2
-105 -2 -132 -11z"/>
<path d="M12195 6244 c-117 -518 -305 -967 -582 -1388 -173 -263 -327 -449
-564 -681 -548 -535 -1200 -884 -1983 -1060 -23 -5 -26 -9 -16 -15 9 -5 19 -5
27 1 8 7 18 7 33 -1 15 -8 35 -8 73 -1 29 6 68 13 87 15 20 3 83 17 140 31 58
15 117 29 131 31 14 2 88 25 165 52 1048 367 1863 1134 2293 2158 48 116 132
348 130 362 -1 4 0 9 1 12 1 3 3 12 5 20 1 8 15 62 30 120 14 57 28 120 31
140 2 19 9 58 15 87 7 38 7 58 -1 73 -8 15 -8 25 -1 33 6 8 6 18 1 27 -6 10
-10 7 -15 -16z m12 -86 c-3 -8 -6 -5 -6 6 -1 11 2 17 5 13 3 -3 4 -12 1 -19z
m-3050 -3054 c-3 -3 -12 -4 -19 -1 -8 3 -5 6 6 6 11 1 17 -2 13 -5z"/>
<path d="M9005 3100 c-3 -5 -1 -10 4 -10 6 0 11 5 11 10 0 6 -2 10 -4 10 -3 0
-8 -4 -11 -10z"/>
</g>
</svg>
